<svg xmlns="http://www.w3.org/2000/svg" viewBox="0 0 520 160" width="520" height="160">
  <defs>
    <style>
      @import url('https://fonts.googleapis.com/css2?family=Playfair+Display:wght@700;900&amp;family=Cormorant+Garamond:wght@300;400&amp;display=swap');
    </style>
    <radialGradient id="nd" cx="35%" cy="30%" r="65%">
      <stop offset="0%" stop-color="#ffe8b0"/>
      <stop offset="40%" stop-color="#ddb37a"/>
      <stop offset="100%" stop-color="#b8895c"/>
    </radialGradient>
  </defs>

  <!--
    Brain from brain_logo.svg (20 nodes, 50 edges).
    Scaled from 426×344 viewBox to ~118×95 (scale 0.343).
    Offset by translate(2, 22) to vertically center in the 160-tall viewBox.
  -->

  <g transform="translate(2, 22)">
    <!-- BRAIN LINES -->
    <g stroke="#b89565" stroke-width="1.0" fill="none" opacity="0.6" stroke-linecap="round">
      <line x1="78.9" y1="0" x2="42.9" y2="6.5"/>
      <line x1="78.9" y1="0" x2="118" y2="12.3"/>
      <line x1="78.9" y1="0" x2="92.6" y2="15.8"/>
      <line x1="78.9" y1="0" x2="67.9" y2="21.6"/>
      <line x1="42.9" y1="6.5" x2="67.9" y2="21.6"/>
      <line x1="42.9" y1="6.5" x2="13.7" y2="25.4"/>
      <line x1="42.9" y1="6.5" x2="39.4" y2="35"/>
      <line x1="118" y1="12.3" x2="92.6" y2="15.8"/>
      <line x1="118" y1="12.3" x2="109.8" y2="24.4"/>
      <line x1="118" y1="12.3" x2="97.1" y2="38.8"/>
      <line x1="92.6" y1="15.8" x2="67.9" y2="21.6"/>
      <line x1="92.6" y1="15.8" x2="109.8" y2="24.4"/>
      <line x1="92.6" y1="15.8" x2="81.6" y2="30.9"/>
      <line x1="92.6" y1="15.8" x2="97.1" y2="38.8"/>
      <line x1="92.6" y1="15.8" x2="65.5" y2="45.3"/>
      <line x1="67.9" y1="21.6" x2="81.6" y2="30.9"/>
      <line x1="67.9" y1="21.6" x2="39.4" y2="35"/>
      <line x1="67.9" y1="21.6" x2="97.1" y2="38.8"/>
      <line x1="67.9" y1="21.6" x2="65.5" y2="45.3"/>
      <line x1="109.8" y1="24.4" x2="97.1" y2="38.8"/>
      <line x1="109.8" y1="24.4" x2="117" y2="39.4"/>
      <line x1="109.8" y1="24.4" x2="92.3" y2="55.9"/>
      <line x1="13.7" y1="25.4" x2="39.4" y2="35"/>
      <line x1="13.7" y1="25.4" x2="0" y2="55.9"/>
      <line x1="81.6" y1="30.9" x2="97.1" y2="38.8"/>
      <line x1="81.6" y1="30.9" x2="65.5" y2="45.3"/>
      <line x1="39.4" y1="35" x2="65.5" y2="45.3"/>
      <line x1="39.4" y1="35" x2="0" y2="55.9"/>
      <line x1="39.4" y1="35" x2="29.8" y2="60.7"/>
      <line x1="39.4" y1="35" x2="49.4" y2="62.8"/>
      <line x1="97.1" y1="38.8" x2="117" y2="39.4"/>
      <line x1="97.1" y1="38.8" x2="65.5" y2="45.3"/>
      <line x1="97.1" y1="38.8" x2="92.3" y2="55.9"/>
      <line x1="65.5" y1="45.3" x2="92.3" y2="55.9"/>
      <line x1="65.5" y1="45.3" x2="49.4" y2="62.8"/>
      <line x1="65.5" y1="45.3" x2="61.7" y2="64.8"/>
      <line x1="65.5" y1="45.3" x2="38.4" y2="78.9"/>
      <line x1="0" y1="55.9" x2="29.8" y2="60.7"/>
      <line x1="0" y1="55.9" x2="13.7" y2="82.7"/>
      <line x1="92.3" y1="55.9" x2="61.7" y2="64.8"/>
      <line x1="29.8" y1="60.7" x2="49.4" y2="62.8"/>
      <line x1="29.8" y1="60.7" x2="61.7" y2="64.8"/>
      <line x1="29.8" y1="60.7" x2="13.7" y2="82.7"/>
      <line x1="49.4" y1="62.8" x2="61.7" y2="64.8"/>
      <line x1="49.4" y1="62.8" x2="38.4" y2="78.9"/>
      <line x1="49.4" y1="62.8" x2="30.5" y2="95"/>
      <line x1="61.7" y1="64.8" x2="38.4" y2="78.9"/>
      <line x1="38.4" y1="78.9" x2="13.7" y2="82.7"/>
      <line x1="38.4" y1="78.9" x2="30.5" y2="95"/>
      <line x1="13.7" y1="82.7" x2="30.5" y2="95"/>
    </g>

    <!-- BRAIN NODES — 20 nodes from brain_logo.svg, radii scaled ×0.343 -->
    <g fill="url(#nd)">
      <circle cx="78.9" cy="0" r="3.1"/>
      <circle cx="42.9" cy="6.5" r="3.4"/>
      <circle cx="118" cy="12.3" r="2.6"/>
      <circle cx="92.6" cy="15.8" r="2.9"/>
      <circle cx="67.9" cy="21.6" r="3"/>
      <circle cx="109.8" cy="24.4" r="2.6"/>
      <circle cx="13.7" cy="25.4" r="3.6"/>
      <circle cx="81.6" cy="30.9" r="2.6"/>
      <circle cx="39.4" cy="35" r="3.4"/>
      <circle cx="97.1" cy="38.8" r="3.2"/>
      <circle cx="117" cy="39.4" r="2.6"/>
      <circle cx="65.5" cy="45.3" r="3.2"/>
      <circle cx="0" cy="55.9" r="3.4"/>
      <circle cx="92.3" cy="55.9" r="3.3"/>
      <circle cx="29.8" cy="60.7" r="3.2"/>
      <circle cx="49.4" cy="62.8" r="3.1"/>
      <circle cx="61.7" cy="64.8" r="2.9"/>
      <circle cx="38.4" cy="78.9" r="2.8"/>
      <circle cx="13.7" cy="82.7" r="3.4"/>
      <circle cx="30.5" cy="95" r="2.9"/>
    </g>
  </g>

  <!-- NLC text — bold serif, cream/white -->
  <text x="155" y="84" font-family="'Playfair Display', 'Cormorant Garamond', Georgia, serif" font-size="82" font-weight="700" fill="#F0E6D0" letter-spacing="0.03em">NLC</text>
  <!-- Designing Intelligence — light serif, golden -->
  <text x="157" y="118" font-family="'Cormorant Garamond', Georgia, serif" font-size="23" font-weight="300" fill="#C4A265" letter-spacing="0.18em">Designing Intelligence</text>
</svg>
